<?xml version="1.0" encoding="UTF-8"?>
<svg xmlns="http://www.w3.org/2000/svg" xmlns:xlink="http://www.w3.org/1999/xlink" width="684" height="600" viewBox="-342 -300 684 600">
<rect width="684" height="600" x="-342" y="-300" fill="#75aadb"/>
<rect width="411.5" height="327.8" x="-205.25" y="-163.9" fill="#fff"/>
<g>
<g id="r16">
<g id="r8">
<g id="r4">
<g id="r2">
<path fill="#fcbf49" stroke="#843511" stroke-width="0.753" d="M-4.0246-0.0086223-1.0129,80.052s0,1.5058,1.0039,1.5058,1.0039-1.5058,1.0039-1.5058l3.0116-80.061"/>
<path fill="#fcbf49" stroke="#843511" stroke-width="0.753" d="m-7.5783,25.854c-4.6108,10.075-0.65139,18.308-5.2578,27.103-4.6064,8.7952-1.7267,16.04-2.0354,20.075s-3.6101,5.1561-2.7765,6.0939c0.83364,0.93793,4.2852-0.92096,5.6317-6.2813,1.3467-5.3603-1.8669-8.4476,3.6569-19.233,5.5236-10.785,1.1347-15.648,6.6793-25.277"/>
<path fill="#843511" d="M-2.0172-0.0086223-0.0094817,54.956,1.9983-0.0086223"/>
<path fill="#843511" d="m-6.3076,28.417c-3.5771,10.029,0.19074,16.686-4.6117,25.185,5.3358-6.0857,1.8183-13.972,6.479-24.293"/>
</g>
<use xlink:href="#r2" transform="rotate(180)"/>
</g>
<use xlink:href="#r4" transform="rotate(90)"/>
</g>
<use xlink:href="#r8" transform="rotate(45)"/>
</g>
<use xlink:href="#r16" transform="rotate(22.5)"/>
<circle r="32.5" fill="#fcbf49" stroke="#843511"/>
<g id="half" fill="#843511">
<path d="M20.569-7.0364c-5.772-5.0196-13.051-5.7726-17.064-2.0078a70.274,25.097,10,0,0,0.7529,13.301c-0.25097,0-0.75292,0.25097-1.0039,0.50196a40.156,25.097,10,0,1,-1.2548,-14.306c5.5214-4.5173,13.051-5.0196,18.572,2.5097"/>
<path d="m11.534-8.5423c-3.2626,0-4.0156,0.75292-5.5214,2.0078-1.5058,1.2548-2.2588,1.0039-2.5097,1.2548-0.25097,0.25097,0,1.0039,0.50196,0.75292,0.50196-0.25097,1.5058-0.75292,3.0116-2.0078,1.5058-1.2548,3.0116-1.2548,4.5173-1.2548,4.5173,0,7.0274,3.7645,7.5292,3.5136,0.50196-0.25097-2.5097-4.2665-7.5292-4.2665"/>
<path d="M17.306-4.2774c-3.262-3.5136-9.2853-3.7646-11.795,0.251h1.0038c2.5097-4.0156,8.5325-2.2588,9.0355-0.502v0.50196"/>
<circle cx="11" cy="-4.5" r="2.25"/>
<path d="m5.5124-4.0233c2.5097,2.2588,8.031,2.5097,11.796-0.25097l-1.7568-0.25097c-2.5097,2.7607-6.5251,2.5097-9.0351,0.50196v-0.50196"/>
<path d="M17.558-3.0196c-4.267,3.2626-8.5332,3.0117-11.043,1.5058-2.5097-1.5058-2.5097-2.0077-2.0077-2.0077,0.50196,0,1.0039,0.50192,3.0116,1.5058,2.0078,1.0039,5.0196,1.0039,10.039-1.0039"/>
<path d="M5.2582,4.51a1.5058,1.5058,0,1,1,-2.0077,1.5058c-0.251,0.502-1.2549,2.0078-3.2627,2.0078h-0.50196l0.50196,0.75292c0.50196,0,2.0078,0,3.0117-0.75292a2.2588,2.2588,0,1,0,2.2587,-3.5136"/>
<path d="M8.2714,15.051c-2.2588-1.506-3.2627-3.765-5.7722-3.765-0.50196,0-1.5058,0.25097-2.5097,0.75292h-0.50196l0.50196,0.75292c1.0039,0,2.5097-1.2549,4.2665-0.25097s2.7607,2.0078,4.0156,2.5097"/>
<path d="M7.5184,15.051c-5.0196-1.506-6.0233-0.502-7.5292-0.502h-0.50196l0.50196,1.0039c2.0078,0,3.0117-1.5058,7.5292-0.50196"/>
<path d="m8.2714,15.051c-5.5214-0.50196-3.7645,2.7607-8.2821,2.7607h-0.50196l0.50196,0.75292c5.5214,0,3.0117-3.0116,8.2821-3.5136"/>
<path d="m4.5087,23.08a4.5176,4.5176,0,1,0,-9.0351,0,4.6431,4.6431,0,0,1,9.0351,0"/>
</g>
<use xlink:href="#half" transform="scale(-1,1)"/>
</g>
</svg>